<svg xmlns="http://www.w3.org/2000/svg" width="53" height="34" viewBox="0 0 53 34"><defs><radialGradient id="bwngb" cx="-5.32" cy="-1.01" r="149540.98" gradientUnits="userSpaceOnUse"><stop offset="0" stop-color="#89cbf1"/><stop offset=".07" stop-color="#83c9f0"/><stop offset=".16" stop-color="#73c4ef"/><stop offset=".25" stop-color="#56bbed"/><stop offset=".35" stop-color="#35b0e6"/><stop offset=".45" stop-color="#009fdf"/><stop offset=".5" stop-color="#0097d9"/><stop offset="1" stop-color="#0066b0"/></radialGradient><clipPath id="bwnga"><path d="M.614 9.107C.614 4.611 5.11.114 9.607.114h33.805c4.496 0 8.993 4.497 8.993 8.993v15.894c0 4.496-4.497 8.993-8.993 8.993H9.607c-4.497 0-8.993-4.497-8.993-8.993z"/></clipPath></defs><g><g><g><g/><g clip-path="url(#bwnga)"><g><path fill="url(#bwngb)" d="M66.364-1.015H-5.315V39.24h71.68V25.954c.284-.23.424-.525.424-.885 0-.412-.14-.667-.425-.883"/></g><g><path fill="#fff" d="M4.85 17.324v-3.43l1.477-3.109h3.18l.41.773v-.773h3.728l.815 1.69.794-1.69H27.09c.538 0 1.022.092 1.377.382v-.382h3.24v.382c.558-.28 1.248-.382 2.034-.382h4.695l.435.773v-.773h3.476l.474.773v-.773h3.388v6.54h-3.423l-.647-.99v.99H37.87l-.463-1.042h-1.052l-.474 1.041h-2.217c-.87 0-1.53-.189-1.955-.398v.398h-5.269V15.84c0-.21-.04-.221-.178-.226h-.197l.004 1.71H15.882v-.808l-.366.812h-2.127l-.366-.8v.796h-4.1l-.468-1.041H7.404l-.47 1.041zm40.273-.92v-4.69h-1.25v3.266l-2.142-3.265h-1.857v4.434l-2.063-4.434h-1.827l-1.719 3.687h-.547c-.321 0-.662-.056-.85-.242-.227-.236-.335-.598-.335-1.1 0-.492.142-.865.35-1.063.242-.217.493-.277.938-.277h1.156v-1.005h-1.18c-.84 0-1.458.173-1.852.547-.524.502-.657 1.137-.657 1.833 0 .852.223 1.392.65 1.79.426.398 1.176.518 1.769.518h1.427l.46-1.045h2.532l.475 1.045h2.483v-3.519l2.312 3.52zm-14.433-4.69h-1.244v4.69h1.244zm-1.95 1.263c0-.522-.232-.828-.618-1.038-.394-.209-.853-.224-1.476-.224H23.84v4.688h1.22v-1.705h1.308c.44 0 .71.036.89.2.22.227.191.632.191.914l.005.591h1.23v-.92c0-.42-.03-.628-.202-.86-.108-.137-.336-.303-.603-.396.316-.116.86-.502.86-1.25zm-5.744 2.457h-2.853v-.937h2.785v-.961h-2.785v-.845h2.853v-.976h-4.073v4.688h4.073zm-4.982.97v-4.69h-2.03l-1.465 3.181-1.596-3.18h-1.99v4.439l-2.074-4.44H7.048l-2.183 4.69h1.324l.473-1.046h2.54l.468 1.045h2.479v-3.675l1.773 3.675h1.07l1.768-3.671.005 3.671zm18.014-2.024l.84-1.869.843 1.869zm-8.883-.744c-.168.093-.366.097-.603.097H25.06V12.69h1.502c.212 0 .434.009.578.085.158.068.256.213.256.415 0 .204-.093.37-.251.445zm-20.048.744l.83-1.869.834 1.869"/></g><g><path fill="#fff" d="M26.428 19.784h-3.896l-1.55 1.538-1.5-1.538h-4.904v4.69h4.83l1.56-1.552 1.5 1.552h2.37v-1.573h1.522c1.066 0 2.123-.269 2.123-1.572 0-1.298-1.087-1.545-2.055-1.545zm-7.638 3.712h-2.997v-.932h2.676v-.957h-2.676v-.852h3.056l1.334 1.366zm4.834.552l-1.872-1.91 1.872-1.85zm2.79-2.1H24.84v-1.193h1.59c.44 0 .745.164.745.574 0 .406-.291.62-.76.62zm8.226 2.526h4.07v-.973l-2.855-.005v-.932h2.785v-.957h-2.785v-.852h2.854v-.97H34.64zm-1.54-2.18a1.32 1.32 0 0 0 .864-1.247c0-.535-.242-.827-.626-1.041-.401-.197-.85-.222-1.467-.222h-2.815v4.69h1.225v-1.712h1.303c.445 0 .716.04.894.208.227.217.197.635.197.918v.586H33.9v-.93c-.004-.413-.03-.627-.202-.855-.103-.137-.325-.302-.597-.395zm-.736-.583c-.163.09-.365.096-.602.096H30.28v-1.052h1.5c.218 0 .435.004.583.084a.44.44 0 0 1 .252.422c0 .2-.094.362-.252.45zm11.001.29c-.276-.257-.73-.362-1.392-.377l-.656-.016a1.51 1.51 0 0 1-.474-.054c-.154-.052-.268-.172-.268-.35 0-.148.05-.26.183-.337.124-.076.268-.084.489-.084h2.236v-.998H41.04c-1.28 0-1.744.716-1.744 1.396 0 1.484 1.429 1.415 2.569 1.451.212 0 .34.033.433.104.085.065.15.174.15.31 0 .129-.061.234-.144.307-.104.087-.268.115-.498.115H39.44v1.006h2.375c1.23 0 1.915-.47 1.915-1.48 0-.483-.127-.767-.365-.993zm4.864 1.873zm0 0v1.22c-.488.216-1.13.301-1.788.301h-3.159v-.42c-.366.27-1.027.42-1.66.42h-9.96v-1.513c0-.185-.02-.192-.221-.192h-.158v1.705h-3.279v-1.766c-.549.218-1.17.238-1.698.23h-.39v1.54l-3.975-.004-.978-1.018-1.038 1.018h-6.448v-6.543h6.572l.943 1 1.007-1h4.4c.508 0 1.343.048 1.718.383v-.383h3.932c.369 0 1.17.068 1.644.383v-.383h5.96v.383c.296-.262.922-.383 1.456-.383h3.337v.383c.35-.234.845-.383 1.526-.383h2.257v.933H45.8c-1.28 0-1.75.716-1.75 1.396 0 1.484 1.43 1.415 2.574 1.451.212 0 .341.033.43.104.09.065.148.174.148.31a.399.399 0 0 1-.144.307c-.098.087-.26.115-.493.115H44.22v1.006h2.354c.782 0 1.359-.202 1.655-.6zm0-1.757c-.034-.04-.064-.08-.113-.116-.272-.257-.717-.362-1.384-.378l-.66-.016a1.5 1.5 0 0 1-.47-.053c-.158-.052-.267-.172-.267-.35 0-.148.05-.26.178-.337.125-.077.272-.084.494-.084h2.222"/></g></g></g></g></g></svg>