<svg xmlns="http://www.w3.org/2000/svg" width="32" height="32" viewBox="0 0 32 32">
  <g id="ic-freeship" transform="translate(-0.301)">
    <g id="Path_1035" data-name="Path 1035" transform="translate(0.301)" fill="#239b28">
      <path d="M 16 31.5 C 11.85980033874512 31.5 7.967410087585449 29.88772010803223 5.039840221405029 26.96015930175781 C 2.112279891967773 24.03259086608887 0.5 20.14019966125488 0.5 16 C 0.5 11.85980033874512 2.112279891967773 7.967410087585449 5.039840221405029 5.039840221405029 C 7.967410087585449 2.112279891967773 11.85980033874512 0.5 16 0.5 C 20.14019966125488 0.5 24.03259086608887 2.112279891967773 26.96015930175781 5.039840221405029 C 29.88772010803223 7.967410087585449 31.5 11.85980033874512 31.5 16 C 31.5 20.14019966125488 29.88772010803223 24.03259086608887 26.96015930175781 26.96015930175781 C 24.03259086608887 29.88772010803223 20.14019966125488 31.5 16 31.5 Z" stroke="none"/>
      <path d="M 16 1 C 11.99334907531738 1 8.226520538330078 2.560270309448242 5.393400192260742 5.393400192260742 C 2.560270309448242 8.226520538330078 1 11.99334907531738 1 16 C 1 20.00664901733398 2.560270309448242 23.77347946166992 5.393400192260742 26.60659980773926 C 8.226520538330078 29.43972969055176 11.99334907531738 31 16 31 C 20.00664901733398 31 23.77347946166992 29.43972969055176 26.60659980773926 26.60659980773926 C 29.43972969055176 23.77347946166992 31 20.00664901733398 31 16 C 31 11.99334907531738 29.43972969055176 8.226520538330078 26.60659980773926 5.393400192260742 C 23.77347946166992 2.560270309448242 20.00664901733398 1 16 1 M 16 0 C 24.8365592956543 0 32 7.163440704345703 32 16 C 32 24.8365592956543 24.8365592956543 32 16 32 C 7.163440704345703 32 0 24.8365592956543 0 16 C 0 7.163440704345703 7.163440704345703 0 16 0 Z" stroke="none" fill="#239b28"/>
    </g>
    <g id="Group_1207" data-name="Group 1207" transform="translate(4.112 10.168)">
      <path id="Path_630" data-name="Path 630" d="M-214.092,506.3a1.468,1.468,0,0,0-1.465-1.471,1.468,1.468,0,0,0-1.465,1.471,1.468,1.468,0,0,0,1.465,1.471A1.468,1.468,0,0,0-214.092,506.3Z" transform="translate(222.719 -494.529)" fill="#fff"/>
      <path id="Path_631" data-name="Path 631" d="M58.044,506.3a1.465,1.465,0,1,0-1.465,1.471A1.468,1.468,0,0,0,58.044,506.3Z" transform="translate(-36.706 -494.529)" fill="#fff"/>
      <path id="Path_632" data-name="Path 632" d="M-247.348,289.266l-1.8-.739-1.523-3.4a1.434,1.434,0,0,0-1.306-.847h-13.466a.7.7,0,0,0-.7.7v1.346h.7a.7.7,0,0,1,.7.7.7.7,0,0,1-.7.7h-.7v1.4h2.424a.7.7,0,0,1,.7.7.7.7,0,0,1-.7.7h-2.424v1.4h.7a.7.7,0,0,1,.7.7.7.7,0,0,1-.7.7h-.7v1.424a.7.7,0,0,0,.7.7h.263a2.87,2.87,0,0,1,2.8-2.258,2.87,2.87,0,0,1,2.8,2.258h7.116a2.87,2.87,0,0,1,2.8-2.258,2.87,2.87,0,0,1,2.8,2.258h.5a.7.7,0,0,0,.7-.7v-2.989A2.675,2.675,0,0,0-247.348,289.266Zm-6.708.02a.7.7,0,0,1-.7-.7V285.51h2.774c.013,0,1.667,3.677,1.667,3.677a.69.69,0,0,0,.055.1Z" transform="translate(269.551 -284.278)" fill="#fff"/>
      <path id="Path_633" data-name="Path 633" d="M-306.369,447.837a.7.7,0,0,0-.7.7.7.7,0,0,0,.7.7h1.212v-1.4Z" transform="translate(308.559 -440.197)" fill="#fff"/>
      <path id="Path_634" data-name="Path 634" d="M-306.369,387.954a.7.7,0,0,0-.7.7.7.7,0,0,0,.7.7h1.212v-1.4Z" transform="translate(308.559 -383.111)" fill="#fff"/>
      <path id="Path_635" data-name="Path 635" d="M-338.3,328.067a.7.7,0,0,0-.7.7.7.7,0,0,0,.7.7h2.7v-1.4Z" transform="translate(338.998 -326.022)" fill="#fff"/>
    </g>
  </g>
</svg>
