<svg xmlns="http://www.w3.org/2000/svg" width="98.524" height="33.88" viewBox="0 0 98.524 33.88">
  <g id="Group_655" data-name="Group 655" transform="translate(0 -0.039)">
    <rect id="Rectangle_169" data-name="Rectangle 169" width="98.524" height="33.88" rx="8.993" transform="translate(0 0.039)" fill="#004790"/>
    <g id="Component_1_1" data-name="Component 1 – 1" transform="translate(32.509 7.17)">
      <text id="Nhận_hàng_Trả_tiền_COD_" data-name="Nhận hàng
Trả tiền (COD)" transform="translate(0 7)" fill="#fff" font-size="9" font-family="MyriadPro-BoldSemiCn, Myriad Pro" font-weight="700"><tspan x="0" y="0">Nhận hàng</tspan><tspan x="0" y="10">Trả tiền (COD)</tspan></text>
    </g>
    <g id="Group_365" data-name="Group 365" transform="translate(12.659 5.598)">
      <path id="Path_224" data-name="Path 224" d="M178.156-232.067h-1.7c-.578,0-1.157-.021-1.734,0a8.472,8.472,0,0,0-1.228.149,7.271,7.271,0,0,1-2.363-.047c-.555-.075-1.1-.2-1.7-.316v.291q0,3.6,0,7.2a2.278,2.278,0,0,1-2.544,2.236,2.237,2.237,0,0,1-2.248-2.067q-.008-3.972,0-7.944,0-2.816,0-5.631a1.99,1.99,0,0,1,1.892-1.856,2.115,2.115,0,0,1,2.338,1.651,6.513,6.513,0,0,0,.2,1.106,2,2,0,0,0,1.061,1.161v-3.847h8.032Zm-12.348-2.64a1.844,1.844,0,0,0-.027.187q0,4.991,0,9.98a1.228,1.228,0,0,0,1.2,1.1,1.3,1.3,0,0,0,1.385-.989c.012-.224-.046-.449-.047-.674,0-2.448,0-4.9-.007-7.344a.4.4,0,0,0-.154-.318A6.141,6.141,0,0,1,165.808-234.707Zm6.428,1.931.018-.066c.17,0,.339.006.509,0a1.017,1.017,0,0,0,1.061-.928.992.992,0,0,0-1.044-.869c-.373-.02-.749-.025-1.115-.077a5.932,5.932,0,0,1-2.355-.7,3.194,3.194,0,0,1-1.527-2.743,1.036,1.036,0,0,0-1.562-.754,1.1,1.1,0,0,0-.576,1.126A4.476,4.476,0,0,0,166.836-235a5.4,5.4,0,0,0,2.884,1.773C170.546-233.037,171.4-232.924,172.235-232.776Z" transform="translate(-163.596 247.139)" fill="#fff"/>
      <path id="Path_225" data-name="Path 225" d="M170.525-246.539a8.837,8.837,0,0,1-.207,1.195,3.6,3.6,0,0,1-3.867,2.293,3.366,3.366,0,0,1-3.213-3.1c-.017-1.106-.006-2.213-.007-3.319,0-.058.01-.115.017-.191h7.208v2.153h2.219v.966Zm-6.19.012a2.117,2.117,0,0,0,1.2,2.178,2.585,2.585,0,0,0,2.709-.023,2.088,2.088,0,0,0,1.114-2.155Z" transform="translate(-163.228 249.658)" fill="#fff"/>
    </g>
  </g>
</svg>
