<svg xmlns="http://www.w3.org/2000/svg" width="54" height="36" viewBox="0 0 54 36"><defs><linearGradient id="wwrda" x1="13.06" x2="21.89" y1="18.18" y2="18.18" gradientUnits="userSpaceOnUse"><stop offset="0" stop-color="#182966"/><stop offset="1" stop-color="#0066b2"/></linearGradient><linearGradient id="wwrdb" x1="13.05" x2="13.06" y1="20.63" y2="20.63" gradientUnits="userSpaceOnUse"><stop offset="0" stop-color="#182966"/><stop offset="1" stop-color="#0066b2"/></linearGradient><linearGradient id="wwrdc" x1="23" x2="31.83" y1="18.18" y2="18.18" gradientUnits="userSpaceOnUse"><stop offset="0" stop-color="#62232a"/><stop offset="1" stop-color="#e50036"/></linearGradient><linearGradient id="wwrdd" x1="34.65" x2="37.71" y1="19.57" y2="19.57" gradientUnits="userSpaceOnUse"><stop offset="0" stop-color="#1f7037"/><stop offset="1" stop-color="#64af31"/></linearGradient><linearGradient id="wwrde" x1="34.64" x2="37.45" y1="16.69" y2="16.69" gradientUnits="userSpaceOnUse"><stop offset="0" stop-color="#1f7037"/><stop offset="1" stop-color="#64af31"/></linearGradient><linearGradient id="wwrdf" x1="32.91" x2="41.75" y1="18.18" y2="18.18" gradientUnits="userSpaceOnUse"><stop offset="0" stop-color="#1f7037"/><stop offset="1" stop-color="#64af31"/></linearGradient></defs><g><g><path fill="#fff" d="M.767 10.107c0-4.496 4.496-8.993 8.993-8.993h33.805c4.497 0 8.993 4.497 8.993 8.993v15.894c0 4.496-4.496 8.993-8.993 8.993H9.76c-4.497 0-8.993-4.497-8.993-8.993z"/><path fill="none" stroke="#d6d5d5" stroke-miterlimit="50" d="M.767 10.107c0-4.496 4.496-8.993 8.993-8.993h33.805c4.497 0 8.993 4.497 8.993 8.993v15.894c0 4.496-4.496 8.993-8.993 8.993H9.76c-4.497 0-8.993-4.497-8.993-8.993z"/></g><g><g><g><path fill="url(#wwrda)" d="M16.527 7.432c-1.815 0-3.473 1.636-3.473 3.473l-.001 8.985c.332.209 1.932.722 2.575.767 1.41.1 2.283-.366 2.418-1.54l-.007-4.361h3.117v4.262c-.164 2.44-2.305 2.938-5.565 2.773-.843-.042-1.99-.26-2.539-.402l-.001 7.541h5.424c1.48 0 3.407-1.383 3.407-3.486V7.432z"/></g><g><path fill="url(#wwrdb)" d="M13.046 19.886v1.501l.006.002V19.89z"/></g></g><g><g><path fill="url(#wwrdc)" d="M26.48 7.432c-1.815 0-3.473 1.636-3.473 3.473v4.753c1.087-.85 2.843-1.267 5.076-1.096 1.271.099 2.211.276 2.723.428v1.508c-.564-.282-1.68-.701-2.609-.768-2.107-.152-3.212.835-3.212 2.43 0 1.436.854 2.665 3.202 2.501.775-.054 2.064-.505 2.612-.766l.007 1.464c-.472.148-1.94.469-3.323.48-2.082.017-3.55-.425-4.478-1.143l-.002 8.234h5.424c1.48 0 3.408-1.383 3.408-3.486V7.432z"/></g></g><g><path fill="url(#wwrdd)" d="M36.773 18.618c-.594.006-1.89-.006-2.124 0l-.004 1.9 2.125.006a.964.964 0 0 0 .932-.97.932.932 0 0 0-.929-.936z"/></g><g><path fill="url(#wwrde)" d="M37.444 16.711c0-.544-.41-.913-.845-.902-.612.014-1.715-.016-1.957.006l-.007 1.73 2.007.013c.333-.006.802-.312.802-.847z"/></g><g><path fill="url(#wwrdf)" d="M36.385 7.432c-1.814 0-3.472 1.636-3.472 3.473l-.001 3.821h5.156c1.027 0 2.235.44 2.235 1.686 0 .67-.356 1.427-1.64 1.673v.029c.75 0 2.05.438 2.05 1.762 0 1.366-1.405 1.746-2.157 1.746l-5.645.006-.002 7.302h5.425c1.48 0 3.407-1.383 3.407-3.486V7.432z"/></g></g></g></svg>