<svg xmlns="http://www.w3.org/2000/svg" width="54" height="36" viewBox="0 0 54 36"><g><g><path fill="#fff" d="M1.285 10.304c0-4.497 4.497-8.993 8.993-8.993h33.806c4.496 0 8.993 4.496 8.993 8.993v15.893c0 4.497-4.497 8.993-8.993 8.993H10.278c-4.496 0-8.993-4.496-8.993-8.993z"/><path fill="none" stroke="#d6d5d5" stroke-miterlimit="50" d="M1.285 10.304c0-4.497 4.497-8.993 8.993-8.993h33.806c4.496 0 8.993 4.496 8.993 8.993v15.893c0 4.497-4.497 8.993-8.993 8.993H10.278c-4.496 0-8.993-4.496-8.993-8.993z"/></g><g><g><path fill="#f06e17" d="M21.781 18.25c0-7.088 5.746-12.833 12.834-12.833 7.089 0 12.832 5.745 12.832 12.834 0 7.086-5.743 12.833-12.832 12.833-7.088 0-12.834-5.747-12.834-12.833z"/></g><g><path fill="#e6001d" d="M26.019 8.697c.005 0-.672.587-1.127 1.161h2.284s.781.844 1.07 1.481h-4.463s-.432.68-.72 1.254h5.903s.54 1.01.657 1.544h-7.177s-.247.7-.35 1.214l7.858-.01c.215.987.74 3.855-.34 7.024l-7.138.009c.114.38.31.895.494 1.274h6.13a17.448 17.448 0 0 1-.814 1.488l-4.494.004c.237.36.618.925.864 1.184l2.768-.002c-.52.717-1.4 1.46-1.4 1.46h-.022l.029.01a12.783 12.783 0 0 1-8.583 3.292c-7.09 0-12.834-5.747-12.834-12.833 0-7.089 5.745-12.834 12.834-12.834 3.293 0 6.299 1.24 8.57 3.28z"/></g><g><path fill="#192966" d="M19.688 16.427l-.207 1.156-1.126-.03s-.563.149-.563.386c0 .236.415.533 1.037.8.623.267.652 1.005.592 1.51-.059.503-.147 1.547-1.954 1.599-1.037.03-1.598-.178-1.598-.178l.236-1.184s1.332.355 1.629.147c.295-.206.65-.563.088-.799-.563-.237-1.48-.621-1.48-1.57 0-.947.385-1.481.977-1.747.593-.265 1.63-.237 2.369-.09z"/></g><g><path fill="#192966" d="M10.791 21.71h-1.31l.762-4.498-1.617 4.473h-.904l-.219-4.652-.791 4.678H5.474l1.167-6.868h1.502l.525 3.955 1.747-3.955h1.542l-1.166 6.868z"/></g><g><path fill="#192966" d="M20.858 21.807c-.427 0-.731-.096-.913-.274-.182-.193-.274-.483-.274-.853 0-.098.01-.193.02-.275.01-.097.03-.208.04-.33l.788-4.397h1.227l-.178.86h1.147l-.193 1.085h-1.147l-.315 1.872c-.019.124-.04.248-.06.386-.02.124-.03.248-.03.33 0 .194.03.317.11.385.072.069.194.111.357.111.06 0 .141-.013.243-.042.102-.04.193-.069.253-.11h.102l-.194 1.1c-.141.056-.283.084-.435.11-.152.03-.335.042-.548.042z"/></g><g><path fill="#192966" d="M29.665 17.984c-.266-.208-.864-.166-.99.26l-.587 3.467H26.86l.882-5.174h1.227l-.026.418c.234-.235.495-.432 1.154-.412.04.001-.398.768-.433 1.44z"/></g><g><path fill="#192966" d="M31.984 21.85c-.678 0-1.216-.235-1.582-.69-.376-.453-.557-1.113-.557-1.967 0-.674.08-1.281.242-1.83a4.73 4.73 0 0 1 .68-1.419 3.148 3.148 0 0 1 1.015-.907c.385-.22.802-.33 1.238-.33.346 0 .67.054.974.15.148.052.43.186.43.186l-.285 1.63a2.127 2.127 0 0 0-.43-.426 1.37 1.37 0 0 0-.749-.219c-.508 0-.924.275-1.25.825-.335.551-.496 1.253-.496 2.105 0 .551.092.951.273 1.199.182.234.448.357.791.357.316 0 .61-.081.883-.248.132-.085.26-.174.382-.277l-.285 1.558s-.148.071-.218.096c-.172.068-.325.11-.456.152a3.145 3.145 0 0 1-.6.054z"/></g><g><path fill="#192966" d="M13.813 19.386a.572.572 0 0 1 .152-.026 6.22 6.22 0 0 1 .609-.098l-.184 1.1c-.122.11-.253.208-.385.29-.071.028-.132.055-.192.07a.535.535 0 0 1-.194.04c-.193 0-.324-.04-.425-.11-.093-.07-.144-.192-.144-.372 0-.205.032-.37.113-.495a.708.708 0 0 1 .315-.29c.09-.04.202-.08.335-.109zm0 2.147c.05-.042.1-.084.161-.124.102-.097.204-.18.275-.248l-.092.55h1.218l.6-3.523.029-.26c.01-.099.01-.18.01-.235 0-.454-.133-.784-.415-.991-.285-.207-.721-.317-1.32-.317-.153 0-.314 0-.466.028-.142.014-.285.028-.428.069-.294.055-.517.11-.66.165l-.18 1.225h.11c.123-.07.305-.138.548-.234.223-.083.427-.125.61-.138h.06c.295 0 .517.04.67.124.152.096.222.248.222.468 0 .055 0 .096-.01.137-.009.04-.009.069-.009.097a6.55 6.55 0 0 0-.933.11l-.255.041c-.355.07-.669.18-.933.345a1.626 1.626 0 0 0-.64.673c-.14.29-.212.634-.212 1.048 0 .385.1.702.304.948a.964.964 0 0 0 .771.358c.202 0 .355-.026.467-.054a3.2 3.2 0 0 0 .356-.167c.04-.026.09-.054.142-.095z"/></g><g><path fill="#192966" d="M24.607 20.68c.264 0 .517-.055.76-.18a3.35 3.35 0 0 0 .62-.413h.142l-.234 1.336a2.941 2.941 0 0 1-.75.316 3.043 3.043 0 0 1-.72.11h-.112c-.66 0-1.158-.193-1.512-.592-.356-.385-.528-.922-.528-1.61 0-.467.06-.908.172-1.294.112-.399.284-.743.498-1.045.212-.29.466-.51.781-.689.223-.11.457-.192.7-.234.112-.013.222-.013.335-.013.568 0 .994.151 1.289.469.283.301.426.77.426 1.374 0 .208-.011.413-.041.62-.03.193-.071.4-.122.592h-2.84v.11c0 .358.101.634.283.839.153.166.377.276.67.304zm-.183-3.248a.737.737 0 0 0-.437.248c-.172.192-.303.44-.395.77h1.654c0-.055.01-.097.01-.152 0-.04.01-.095.01-.137 0-.249-.06-.427-.173-.566a.607.607 0 0 0-.475-.19.905.905 0 0 0-.194.027z"/></g><g><path fill="#192966" d="M36.064 19.36a6.61 6.61 0 0 1 .62-.098l-.193 1.1a2.2 2.2 0 0 1-.386.29c-.06.028-.122.055-.181.07a.585.585 0 0 1-.205.04c-.182 0-.324-.04-.415-.11-.101-.07-.154-.192-.154-.372 0-.205.043-.37.113-.495a.783.783 0 0 1 .314-.29c.102-.04.214-.08.347-.109a.437.437 0 0 1 .14-.026zm-.14 2.173l.151-.124c.11-.097.204-.18.285-.248l-.092.55h1.217l.6-3.523.029-.26c.01-.099.01-.18.01-.235 0-.454-.141-.784-.415-.991-.284-.207-.721-.317-1.319-.317-.163 0-.315 0-.466.028-.143.014-.286.028-.427.069-.304.055-.527.11-.67.165l-.172 1.225h.112c.122-.07.303-.138.547-.234a2.04 2.04 0 0 1 .61-.138h.059c.296 0 .518.04.67.124.143.096.223.248.223.468 0 .055-.008.096-.008.137-.011.04-.011.069-.022.097-.324.014-.64.055-.922.11a22.83 22.83 0 0 0-.255.041 2.73 2.73 0 0 0-.943.345 1.656 1.656 0 0 0-.628.673c-.143.29-.216.634-.216 1.048 0 .385.093.702.296.948a.98.98 0 0 0 .78.358c.192 0 .346-.026.457-.054a2.44 2.44 0 0 0 .356-.167c.05-.026.1-.054.153-.095z"/></g><g><path fill="#192966" d="M41.1 17.984c-.268-.208-.864-.166-.99.26l-.587 3.467h-1.226l.88-5.174h1.229l-.027.418c.234-.235.495-.432 1.154-.412.04.001-.4.768-.432 1.44z"/></g><g><path fill="#192966" d="M43.512 21.437c-.09.082-.192.165-.304.233-.101.055-.203.11-.294.137a1.37 1.37 0 0 1-.355.042c-.378 0-.672-.167-.894-.482-.212-.33-.323-.797-.323-1.39 0-.496.05-.964.17-1.39.112-.426.275-.812.479-1.141.203-.33.437-.578.71-.772.263-.18.527-.275.81-.29h.041c.214 0 .396.029.548.083.154.056.315.152.478.276l.272-1.805h1.227l-1.125 6.773h-1.226l.092-.536c-.114.096-.213.18-.306.262zm0-3.8a.915.915 0 0 0-.173.111c-.162.11-.294.276-.405.467-.091.193-.172.413-.224.703a3.771 3.771 0 0 0-.092.812c0 .317.061.536.164.674.11.151.273.221.488.221.08 0 .161-.015.242-.055a.426.426 0 0 0 .111-.056c.123-.069.235-.138.345-.234l.436-2.546a.987.987 0 0 0-.263-.11.73.73 0 0 0-.273-.056.976.976 0 0 0-.356.07z"/></g><g><path fill="#fff" d="M19.936 16.244l-.208 1.154-1.126-.03s-.562.148-.562.385c0 .237.414.534 1.036.8.623.267.652 1.007.593 1.51-.06.504-.149 1.549-1.955 1.6-1.037.03-1.599-.177-1.599-.177l.235-1.186s1.334.357 1.631.148c.296-.207.652-.562.088-.8-.562-.236-1.481-.622-1.481-1.569 0-.946.385-1.48.978-1.748.591-.265 1.628-.237 2.37-.087z"/></g><g><path fill="#fff" d="M11.037 21.526H9.729l.76-4.5L8.873 21.5h-.904l-.217-4.652-.792 4.68h-1.24l1.168-6.868H8.39l.526 3.954 1.747-3.954h1.542l-1.167 6.867z"/></g><g><path fill="#fff" d="M21.104 21.623c-.425 0-.73-.096-.913-.276-.183-.192-.274-.482-.274-.852 0-.098.01-.193.02-.276.012-.096.03-.206.042-.33l.786-4.395h1.229l-.18.857h1.147l-.193 1.087h-1.146l-.315 1.874c-.02.121-.04.246-.06.383-.02.125-.03.25-.03.331 0 .193.03.317.11.386.072.068.193.11.355.11a1 1 0 0 0 .244-.042c.102-.04.193-.068.254-.11h.102l-.194 1.101a2.202 2.202 0 0 1-.435.11 3.152 3.152 0 0 1-.549.042z"/></g><g><path fill="#fff" d="M29.913 17.798c-.268-.206-.865-.164-.99.26l-.589 3.469h-1.226l.883-5.176h1.226l-.025.418c.234-.233.493-.432 1.15-.411.043.002-.398.769-.43 1.44z"/></g><g><path fill="#fff" d="M32.232 21.664c-.68 0-1.219-.233-1.582-.688-.377-.453-.559-1.114-.559-1.968 0-.675.081-1.281.243-1.83.163-.551.397-1.018.68-1.42.284-.383.62-.686 1.016-.906.382-.221.8-.33 1.236-.33.345 0 .67.054.975.151.147.05.43.185.43.185l-.285 1.632a2.133 2.133 0 0 0-.43-.428 1.385 1.385 0 0 0-.751-.22c-.507 0-.923.276-1.248.827-.334.55-.497 1.253-.497 2.106 0 .55.091.95.274 1.196.183.234.446.358.792.358.314 0 .608-.084.883-.248.129-.085.256-.175.381-.277l-.286 1.558s-.147.071-.218.096c-.172.069-.323.11-.455.15a3.162 3.162 0 0 1-.6.056z"/></g><g><path fill="#fff" d="M14.059 19.201a.579.579 0 0 1 .153-.027c.182-.042.395-.07.607-.097l-.182 1.101c-.122.11-.254.206-.385.288-.072.029-.132.057-.193.07a.516.516 0 0 1-.192.041.733.733 0 0 1-.427-.11c-.091-.07-.142-.192-.142-.372 0-.206.03-.37.112-.496a.686.686 0 0 1 .314-.287c.091-.042.203-.083.335-.11zm.162 2.023c.102-.096.202-.179.274-.248l-.092.55h1.22l.596-3.523c.011-.081.02-.164.032-.26.01-.098.01-.18.01-.235 0-.454-.133-.785-.416-.991-.285-.207-.72-.317-1.32-.317-.152 0-.313 0-.466.027-.142.015-.285.028-.426.07-.295.054-.518.11-.66.165l-.182 1.225h.11c.122-.07.307-.137.549-.235.223-.082.426-.124.609-.137h.06c.295 0 .518.041.67.123.152.097.224.249.224.469 0 .054 0 .097-.01.137-.01.041-.01.069-.01.096-.335.016-.64.055-.934.11l-.253.043c-.356.068-.67.18-.933.343a1.626 1.626 0 0 0-.64.676c-.143.287-.213.632-.213 1.045 0 .385.102.7.305.95a.96.96 0 0 0 .77.357c.203 0 .355-.029.466-.056.112-.04.224-.095.356-.164.04-.028.091-.054.142-.096.05-.042.1-.084.162-.124z"/></g><g><path fill="#fff" d="M24.67 20.495h.183c.265 0 .517-.055.762-.18.232-.124.446-.261.618-.413h.141l-.232 1.335c-.233.14-.487.249-.751.317a3.032 3.032 0 0 1-.721.11h-.11c-.66 0-1.159-.193-1.513-.592-.355-.386-.528-.922-.528-1.61 0-.468.062-.907.173-1.294.111-.398.284-.743.497-1.046a2.44 2.44 0 0 1 .781-.688c.224-.11.457-.192.7-.234.111-.012.223-.012.336-.012.568 0 .993.15 1.288.466.284.303.427.771.427 1.378 0 .205-.01.412-.04.62a6.282 6.282 0 0 1-.123.59h-2.84v.11c0 .357.101.633.283.839.153.166.376.276.669.304zm0-3.249a.748.748 0 0 0-.436.248c-.172.193-.304.44-.396.77h1.655c0-.054.01-.096.01-.151 0-.04.01-.096.01-.136 0-.25-.061-.427-.172-.567-.112-.122-.265-.19-.478-.19a.879.879 0 0 0-.193.026z"/></g><g><path fill="#fff" d="M36.17 19.201a.45.45 0 0 1 .14-.027 7.12 7.12 0 0 1 .62-.097l-.192 1.101c-.123.11-.244.206-.386.288a.844.844 0 0 1-.182.07.56.56 0 0 1-.203.041c-.183 0-.326-.042-.416-.11-.102-.07-.152-.192-.152-.372 0-.206.04-.37.112-.496a.74.74 0 0 1 .314-.287c.102-.042.213-.083.345-.11zm0 2.147l.153-.124c.112-.096.202-.179.284-.248l-.093.55h1.218l.598-3.523.033-.26c.01-.098.01-.18.01-.235 0-.454-.143-.785-.416-.991-.286-.207-.72-.317-1.32-.317-.164 0-.314 0-.467.027-.143.015-.284.028-.426.07-.306.054-.527.11-.67.165l-.171 1.225h.11c.122-.07.304-.137.549-.235.212-.082.414-.124.608-.137h.06c.295 0 .517.041.67.123.143.097.224.249.224.469 0 .054-.011.097-.011.137-.01.041-.01.069-.019.096-.324.016-.64.055-.924.11a7.289 7.289 0 0 0-.254.043 2.72 2.72 0 0 0-.942.343 1.656 1.656 0 0 0-.63.676c-.143.287-.214.632-.214 1.045 0 .385.092.7.295.95a.98.98 0 0 0 .781.357c.193 0 .345-.029.457-.056.111-.04.233-.095.355-.164.05-.028.1-.054.152-.096z"/></g><g><path fill="#fff" d="M41.348 17.798c-.269-.206-.866-.164-.99.26l-.587 3.469h-1.228l.883-5.176h1.226l-.025.418c.233-.233.493-.432 1.152-.411.04.002-.4.769-.431 1.44z"/></g><g><path fill="#fff" d="M43.759 21.252a2.176 2.176 0 0 1-.305.234 1.77 1.77 0 0 1-.293.137 1.407 1.407 0 0 1-.355.041c-.377 0-.671-.165-.895-.482-.212-.33-.324-.798-.324-1.39 0-.496.05-.964.173-1.39.111-.425.274-.812.477-1.14.204-.333.436-.58.709-.772.264-.18.529-.275.813-.29h.04c.212 0 .397.027.549.083.152.054.315.151.476.275l.273-1.803h1.227L45.2 21.527h-1.227l.09-.537c-.112.095-.214.179-.304.262zm0-3.8a.89.89 0 0 0-.172.111c-.164.11-.295.276-.406.469a2.591 2.591 0 0 0-.223.7 3.724 3.724 0 0 0-.092.813c0 .317.061.536.16.674.115.15.276.22.49.22a.527.527 0 0 0 .243-.055.414.414 0 0 0 .112-.055 2.07 2.07 0 0 0 .344-.234l.436-2.545a.92.92 0 0 0-.263-.112.73.73 0 0 0-.275-.054.974.974 0 0 0-.354.068z"/></g></g></g></svg>