<svg xmlns="http://www.w3.org/2000/svg" width="54" height="36" viewBox="0 0 54 36"><g><g><path fill="#fff" d="M1.23 10.107c0-4.496 4.496-8.993 8.992-8.993h33.805c4.497 0 8.994 4.497 8.994 8.993v15.894c0 4.496-4.497 8.993-8.994 8.993H10.222c-4.496 0-8.993-4.497-8.993-8.993z"/><path fill="none" stroke="#d6d5d5" stroke-miterlimit="50" d="M1.23 10.107c0-4.496 4.496-8.993 8.992-8.993h33.805c4.497 0 8.994 4.497 8.994 8.993v15.894c0 4.496-4.497 8.993-8.994 8.993H10.222c-4.496 0-8.993-4.497-8.993-8.993z"/></g><g><path fill="#005fac" d="M25.743 19.233c0 5.67-4.596 10.074-10.266 10.074S5.339 24.903 5.339 19.233 9.806 8.967 15.477 8.967c5.67 0 10.266 4.596 10.266 10.266z"/></g><g><path fill="#0c2b69" d="M36.81 19.368l.93-2.948.93 2.948zm2.34-5.095h-2.788l-3.077 8.14h2.596l.385-1.41 2.884.096.417 1.314h2.628z"/></g><g><path fill="#0c2b69" d="M41.265 14.272l3.141 4.712v3.429h2.532v-3.526l3.14-4.615h-2.691l-1.635 2.82-1.794-2.82z"/></g><g><path fill="#0c2b69" d="M30.385 17.83h-1.042v-1.907h1.186c.096 0 .865.128.865.953s-1.01.954-1.01.954zm3.413-1.122c0-2.34-2.435-2.435-2.435-2.435H26.81v8.14h2.532V19.4l2.276-.032c2.307-.417 2.18-2.66 2.18-2.66z"/></g><g><path fill="#fff" d="M9.249 21.644c-1.87 0-2.928-1.443-2.928-3.222 0-1.778 1.005-3.282 2.863-3.338 1.785-.053 2.735 1.56 2.735 3.338 0 1.78-.95 3.222-2.67 3.222zm-.107-7.486c-2.641.072-3.877 2.016-3.877 4.315 0 2.3 1.311 4.164 3.969 4.164 2.444 0 3.796-1.864 3.796-4.164 0-2.299-1.352-4.384-3.888-4.315z"/></g><g><path fill="#fff" d="M14.313 22.413h1.04v-3.766s.033-1.378 1.57-1.378c0 0 1.203-.016 1.203 1.074v4.07h1.058V18.15s.096-1.778-2.003-1.778c0 0-1.298-.033-1.94.945v-.801h-.928z"/></g><g><path fill="#fff" d="M21.437 18.887c0-1.698 1.71-1.698 1.71-1.698 1.517 0 1.613 1.698 1.613 1.698zm1.86-2.515s-3.013-.225-2.96 3.02c0 0-.277 2.957 2.65 3.18 0 0 2.104.332 2.82-1.911h-1.121s-.332 1.079-1.678 1.079c0 0-1.528-.053-1.624-1.998h4.466s.171-3.37-2.553-3.37z"/></g></g></svg>