<svg xmlns="http://www.w3.org/2000/svg" width="67" height="36" viewBox="0 0 67 36"><g><g><path fill="#fff" d="M1.079 10.147c0-4.497 4.496-8.994 8.993-8.994h47.03c4.497 0 8.994 4.497 8.994 8.994V26.04c0 4.497-4.497 8.993-8.994 8.993h-47.03c-4.497 0-8.993-4.496-8.993-8.993z"/><path fill="none" stroke="#d6d5d5" stroke-miterlimit="50" d="M1.079 10.147c0-4.497 4.496-8.994 8.993-8.994h47.03c4.497 0 8.994 4.497 8.994 8.994V26.04c0 4.497-4.497 8.993-8.994 8.993h-47.03c-4.497 0-8.993-4.496-8.993-8.993z"/></g><g><g><path fill="#004790" d="M25.113 25.396l2.612-14.006h4.179l-2.615 14.006z"/></g><g><path fill="#004790" d="M44.444 11.735c-.828-.284-2.125-.588-3.745-.588-4.128 0-7.037 1.9-7.062 4.622-.023 2.012 2.076 3.135 3.661 3.805 1.626.686 2.174 1.124 2.166 1.737-.01.939-1.299 1.368-2.5 1.368-1.672 0-2.56-.213-3.933-.735l-.539-.223-.586 3.135c.976.391 2.78.73 4.654.748 4.393 0 7.244-1.878 7.276-4.786.016-1.593-1.097-2.806-3.507-3.805-1.461-.648-2.356-1.08-2.346-1.736 0-.582.757-1.205 2.393-1.205a8.354 8.354 0 0 1 3.127.537l.375.162.566-3.036"/></g><g><path fill="#004790" d="M50.006 20.43c.346-.806 1.664-3.914 1.664-3.914-.024.037.343-.811.554-1.337l.283 1.208.968 4.043zm5.152-9.027H51.93c-1 0-1.748.25-2.187 1.162L43.536 25.4h4.387s.718-1.726.88-2.104l5.352.005c.124.49.508 2.099.508 2.099h3.877l-3.382-13.997"/></g><g><path fill="#004790" d="M21.608 11.4l-4.09 9.551-.436-1.941c-.762-2.237-3.135-4.661-5.787-5.875l3.74 12.249 4.421-.006L26.034 11.4h-4.426"/></g><g><path fill="#fc9200" d="M13.722 11.392H6.985l-.053.291c5.242 1.16 8.71 3.96 10.15 7.327l-1.466-6.436c-.253-.887-.986-1.151-1.894-1.182"/></g></g></g></svg>