<svg xmlns="http://www.w3.org/2000/svg" width="59" height="36" viewBox="0 0 59 36"><g><g><path fill="#fff" d="M.692 10.107c0-4.496 4.496-8.993 8.993-8.993h39.322c4.496 0 8.993 4.497 8.993 8.993v15.894c0 4.496-4.497 8.993-8.993 8.993H9.685c-4.497 0-8.993-4.497-8.993-8.993z"/><path fill="none" stroke="#d6d5d5" stroke-miterlimit="50" d="M.692 10.107c0-4.496 4.496-8.993 8.993-8.993h39.322c4.496 0 8.993 4.497 8.993 8.993v15.894c0 4.496-4.497 8.993-8.993 8.993H9.685c-4.497 0-8.993-4.497-8.993-8.993z"/></g><g><path fill="#e00519" d="M18.41 24.407h-2.877c1.008-1.063.608-2.33.647-3.52.047-1.45-.015-2.904.024-4.356.016-.643-.095-1.205-.498-1.709-.11-.136-.182-.304-.318-.536.994 0 1.907-.025 2.816.02.188.01.395.256.538.437 1.455 1.845 2.898 3.7 4.346 5.551.072.092.153.177.347.397v-1.456c0-.757.003-1.514-.001-2.271-.004-.907.167-1.852-.705-2.643h2.758c.005.012.038.068.029.077-.696.643-.653 1.476-.645 2.322.02 2.414.006 4.828.006 7.241v.712c-1.326-.115-2.368-.636-3.162-1.671-1.306-1.701-2.634-3.384-4.03-5.174-.023.279-.05.446-.05.613-.003 1.289.036 2.58-.015 3.866-.032.788.082 1.485.79 2.1z"/></g><g><path fill="#004a9b" d="M36.947 16.742l.175-.018 1.26 3.305h-2.583zm5.993 7.53c-.301-.543-.67-1.057-.889-1.628a514.636 514.636 0 0 1-2.837-7.61c-.16-.437-.367-.665-.88-.626-.69.051-2.94.024-3.034.033.346.452.61 1.01.48 1.383-.98 2.831-1.825 5.712-3.017 8.444h2.178c-.569-1.067.155-1.914.388-2.83.025-.095.26-.193.399-.196.92-.017 1.84-.022 2.759.007.157.005.394.169.448.314.32.86.868 1.7.279 2.71h3.726z"/></g><g><path fill="#e00519" d="M5.115 14.283c.882 0 1.72.021 2.557-.01.369-.013.526.118.642.455.726 2.12 1.472 4.234 2.215 6.348.078.224.179.44.315.77.617-1.704 1.202-3.287 1.763-4.88.303-.862.88-1.722.013-2.661h2.322c-.417 1.212-.818 2.383-1.223 3.554-.727 2.097-1.473 4.19-2.171 6.297-.143.43-.335.484-.708.37-1.321-.401-2.296-1.138-2.79-2.504-.929-2.566-1.932-5.104-2.935-7.74z"/></g><g><path fill="#004a9b" d="M30.532 19.96c.95-1.01 1.157-2.11.673-3.324-.31-.776-.736-.997-1.653-.874-.01.225-.03.462-.03.7-.002 1.962.002 3.924-.003 5.886-.001.669-.093 1.355.625 1.912H26.85c.06-.732.157-1.426.163-2.12.022-2.147.021-4.293-.003-6.439-.004-.403-.153-.803-.244-1.254.023-.002.153-.025.282-.025 1.45-.001 2.902-.008 4.354.005 1.393.012 2.44 1.145 2.557 2.528.18 2.134-1.577 3.317-3.427 3.004z"/></g><g><path fill="#004a9b" d="M41.471 14.425c1.024 0 1.977-.02 2.927.018.168.006.37.22.48.388.609.942 1.193 1.902 1.788 2.853.105.17.22.332.404.605.255-.343.46-.608.651-.883.266-.387.51-.79.784-1.17.388-.534.667-1.077.258-1.78h2.792c-.492.706-.95 1.369-1.414 2.027-.673.95-1.368 1.885-2.013 2.853a1.97 1.97 0 0 0-.293.959c-.04.836-.048 1.677 0 2.513.028.475.192.942.302 1.444h-3.269c.63-1.404.205-2.9.288-4.357.014-.224-.203-.477-.351-.69-1.088-1.573-2.187-3.14-3.334-4.78z"/></g></g></svg>